<svg xmlns="http://www.w3.org/2000/svg" xmlns:xlink="http://www.w3.org/1999/xlink" viewBox="0 0 70.63 70.63"><defs><style>.cls-1{fill:url(#linear-gradient);}.cls-2{fill:#fff;}.cls-3{fill:url(#linear-gradient-2);}</style><linearGradient id="linear-gradient" x1="11.19" y1="-6.46" x2="59.43" y2="77.09" gradientUnits="userSpaceOnUse"><stop offset="0" stop-color="#f9a532"/><stop offset="1" stop-color="#b64a26"/></linearGradient><linearGradient id="linear-gradient-2" x1="42.09" y1="34.87" x2="53.67" y2="34.87" gradientUnits="userSpaceOnUse"><stop offset="0" stop-color="#58b947"/><stop offset="0.47" stop-color="#56b747"/><stop offset="0.69" stop-color="#4eb145"/><stop offset="0.85" stop-color="#42a642"/><stop offset="0.99" stop-color="#30973e"/><stop offset="1" stop-color="#2e953e"/></linearGradient></defs><g id="Layer_2" data-name="Layer 2"><g id="Layer_1-2" data-name="Layer 1"><rect class="cls-1" width="70.63" height="70.63"/><path class="cls-2" d="M16,33.24a7.33,7.33,0,0,1,.27,2.21A11.07,11.07,0,0,1,16,38.11a9.54,9.54,0,0,1-1,2.41,5.08,5.08,0,0,1-4.51,2.56,4.32,4.32,0,0,1-3.28-1A3,3,0,0,1,6.62,40a8.44,8.44,0,0,1,.15-1.49l.89-5.27h3.22L10,38.53a2.55,2.55,0,0,0-.05.53,1,1,0,0,0,1.11,1.14q2,0,2-4.34a18.84,18.84,0,0,0-.15-2.25l-.06-.37Z"/><path class="cls-2" d="M20.9,40.26a1.56,1.56,0,0,0,.78-.2l-.1,2.25a3,3,0,0,1-2,.77c-1.15,0-1.89-.28-2.23-.83A2.25,2.25,0,0,1,17,41.06a7.08,7.08,0,0,1,.08-1.1l1.14-6.72h3.22L20.35,39.5a1.8,1.8,0,0,0,0,.22Q20.33,40.26,20.9,40.26Z"/><path class="cls-2" d="M18.57,30a2.68,2.68,0,0,1,.54-1.86,2.18,2.18,0,0,1,1.68-.58q1.59,0,1.59,1.47a2.63,2.63,0,0,1-.54,1.83,2.25,2.25,0,0,1-1.7.58C19.09,31.43,18.57,31,18.57,30Z"/><path class="cls-2" d="M28.47,36.7c0-.57-.26-.86-.79-.86a1.63,1.63,0,0,0-1.3.62L25.32,42.8H22.1l1.61-9.56h3l-.21,1.17A3.4,3.4,0,0,1,29.32,33q1.71,0,2.22.87a2.45,2.45,0,0,1,.33,1.27,9.25,9.25,0,0,1-.1,1.34l-.51,3.06a1.8,1.8,0,0,0,0,.22q0,.54.57.54a1.56,1.56,0,0,0,.78-.2l-.1,2.25a3,3,0,0,1-2,.77c-1.72,0-2.58-.76-2.58-2.27A5.28,5.28,0,0,1,28,40l.45-2.65A3.78,3.78,0,0,0,28.47,36.7Z"/><path class="cls-2" d="M42.72,35.3a2.15,2.15,0,0,1-.38,1.22H39.23a.48.48,0,0,0,.15-.4.49.49,0,0,0-.31-.45,1.6,1.6,0,0,0-.77-.17c-.95,0-1.43.31-1.43.92,0,.24.18.41.53.51a7.5,7.5,0,0,0,1.29.26c.51.07,1,.17,1.52.29a2.63,2.63,0,0,1,1.29.75A2,2,0,0,1,42,39.72a2.84,2.84,0,0,1-1.26,2.51,6.53,6.53,0,0,1-3.67.85,5.36,5.36,0,0,1-3.38-.81A2.18,2.18,0,0,1,33,40.52a3.67,3.67,0,0,1,.05-.66l3.17,0c0,.18.08.35.31.49a2.07,2.07,0,0,0,1,.21,2.35,2.35,0,0,0,1-.15.57.57,0,0,0,.31-.57c0-.19-.18-.32-.53-.39s-.79-.13-1.3-.19A11.52,11.52,0,0,1,35.46,39a2.52,2.52,0,0,1-1.3-.75,2.17,2.17,0,0,1-.53-1.51A3.25,3.25,0,0,1,35,33.91a6.49,6.49,0,0,1,3.86-1Q42.72,32.94,42.72,35.3Z"/><path class="cls-2" d="M47.23,43.08a4.18,4.18,0,0,1-3.17-1,2.83,2.83,0,0,1-.72-2,5.88,5.88,0,0,1,.08-.9l1.29-7.69,3.47-1.52-.55,3.33h5.24L52.39,36H47.16l-.38,2.25a3.47,3.47,0,0,0-.08.67q0,1.26,1.14,1.26a1.22,1.22,0,0,0,1-.54,3.16,3.16,0,0,0,.56-1.43h3.15Q51.77,43.08,47.23,43.08Z"/><path class="cls-2" d="M62,39.74a.46.46,0,0,0,.5.52,1.7,1.7,0,0,0,.85-.2l-.1,2.25a3.11,3.11,0,0,1-2,.77q-2.09,0-2.31-1.59a3.05,3.05,0,0,1-2.79,1.59c-2.07,0-3.11-.93-3.11-2.8a7,7,0,0,1,.09-1.06l.4-2.33A5,5,0,0,1,54.89,34,3.87,3.87,0,0,1,57.73,33a2.78,2.78,0,0,1,2.38.85l.1-.59h2.88L62,39.5A1.94,1.94,0,0,0,62,39.74Zm-5.62-1a3.25,3.25,0,0,0,0,.5.94.94,0,0,0,.28.63,1.28,1.28,0,0,0,1,.31,1.53,1.53,0,0,0,1.17-.56l.56-3.34c-.13-.33-.46-.5-1-.5a1.57,1.57,0,0,0-1.71,1.47Z"/><polygon class="cls-3" points="53.67 33.23 42.09 33.23 47.11 36.5 53.08 36.5 53.67 33.23"/></g></g></svg>